<svg width="118" height="80" viewBox="0 0 118 80" fill="none" xmlns="http://www.w3.org/2000/svg">
<g filter="url(#filter0_d_1_712)">
<rect x="4" y="3" width="110" height="72" rx="10" fill="white"/>
<g clip-path="url(#clip0_1_712)">
<path d="M8 13C8 9.68629 10.6863 7 14 7H88V71H14C10.6863 71 8 68.3137 8 65V13Z" fill="#0999D6"/>
<path fill-rule="evenodd" clip-rule="evenodd" d="M75.45 41.2922C75.45 41.3062 75.6047 41.8828 75.5906 41.8547C75.8859 43.0359 76.0688 44.0344 76.0688 44.0203C76.2094 44.7094 76.3078 45.3281 76.3078 45.314C76.3078 45.3281 76.3922 45.8484 76.3922 45.8203C76.4625 46.3406 76.5187 46.6922 76.5187 46.6781C76.6453 47.6484 76.6734 48.0844 76.6734 48.0703C76.7297 48.6609 76.7578 49.1672 76.7578 49.1531C76.7578 49.1672 76.7859 49.589 76.7859 49.5609C76.7859 49.575 76.8141 49.9828 76.8 49.9547C76.8 49.9687 76.8141 50.4609 76.8141 50.4328C76.8563 51.839 76.9125 53.7515 73.9453 56.7609C73.9734 56.7469 73.7625 56.9719 72.1734 58.35C74.5781 63.5109 75.2531 70.1203 74.6625 75H21.1969C20.5922 69.9937 21.3234 63.4125 23.6859 58.3359C23.6719 58.3219 22.8563 57.6469 22.8703 57.6469C22.5047 57.3234 22.1813 57.014 22.1953 57.0281C20.6062 55.4812 19.0312 53.4422 19.0312 51.2344C19.0312 51.2203 19.0312 50.8687 19.0312 50.8969C19.0312 50.8828 19.0453 50.5172 19.0453 50.5453C19.0453 50.5312 19.0594 50.1515 19.0594 50.1797C19.0594 50.1656 19.0875 49.6734 19.0875 49.7015C19.0875 49.6875 19.1156 49.2797 19.1156 49.3078C19.1156 49.2937 19.1578 48.675 19.1578 48.689C19.1578 48.675 19.2 48.225 19.2 48.2531C19.2 48.239 19.2422 47.789 19.2422 47.8172C19.2844 47.4515 19.3406 47.0015 19.3406 47.0156C19.3406 47.0015 19.4109 46.5094 19.3969 46.5375C19.4953 45.8062 19.6078 45.1734 19.6078 45.1875C19.6078 45.1734 19.7484 44.414 19.7484 44.4281C20.1984 42.0094 20.8312 39.9703 20.8312 39.9844C20.9016 39.7312 20.9156 39.689 21.0141 39.2953C24.7969 25.9219 37.7344 10.1719 42.0938 11.1562C43.2188 11.4094 44.3297 12.7594 45.3422 14.7562C45.9609 16.0219 46.3266 17.0062 46.3125 16.9922C46.3125 17.0062 46.4953 17.4703 46.4812 17.4422C46.6219 17.8078 46.7063 18.075 46.8469 18.4828C49.3219 18.4547 48.8859 18.4828 49.1109 18.4828C49.6031 17.0344 49.9406 16.2469 49.9266 16.2609C50.6156 14.5875 52.0781 11.564 53.85 11.1562C58.35 10.1437 72.2016 27.0047 75.45 41.2922Z" fill="white"/>
<path d="M43.3031 19.0172C43.0359 18.6656 42.7687 18.3281 42.5015 18.0469C41.8125 17.3016 41.1375 16.8375 40.6172 16.8797C40.0406 16.9219 39.3234 17.6953 38.6203 18.8906C38.3672 19.3125 38.1281 19.7906 37.889 20.3109" stroke="#CABCB4" stroke-width="2.53125" stroke-linecap="round"/>
<path d="M29.9718 61.1766C36.7077 64.8469 44.7656 66.9281 48.014 66.9281C51.2624 66.9281 59.278 64.8328 65.9718 61.1625" stroke="#CABCB4" stroke-width="2.53125" stroke-linecap="round"/>
<path fill-rule="evenodd" clip-rule="evenodd" d="M47.1281 45.6656C48.1687 47.1281 50.0812 48.1547 52.3312 48.2812V48.5625V48.9141C52.3312 52.9078 51.15 56.1422 47.9578 56.1422C44.8078 56.1422 43.6125 52.9641 43.5844 49.0266V48.9V48.5484C43.5844 48.3656 43.5844 48.1828 43.5844 48C45.1031 47.5922 46.3547 46.7625 47.1281 45.6656Z" fill="#F23C57"/>
<path d="M35.0343 42.9094C35.4843 44.8781 36.6093 46.65 38.2687 47.7469C41.5874 49.9406 45.8484 48.6187 47.7749 44.8078" stroke="black" stroke-width="2.53125" stroke-linecap="round"/>
<path d="M60.2202 42.9094C59.7702 44.8781 58.6452 46.65 56.9859 47.7469C53.6671 49.9406 49.4062 48.6187 47.4796 44.8078" stroke="black" stroke-width="2.53125" stroke-linecap="round"/>
<path fill-rule="evenodd" clip-rule="evenodd" d="M47.7328 45.7078C49.6734 45.7078 52.3875 42.8672 52.3875 40.4625C52.3875 38.0578 50.7 37.8047 47.6625 37.8047C44.625 37.8047 42.9375 38.0578 42.9375 40.4625C42.9375 42.8672 45.7922 45.7078 47.7328 45.7078Z" fill="black"/>
<path fill-rule="evenodd" clip-rule="evenodd" d="M38.6343 31.9125C36.6937 32.4328 35.6109 34.6828 35.864 35.625C36.1171 36.5672 37.9734 37.2 39.914 36.6797C41.8547 36.1594 43.1203 34.5703 42.8953 33.7406C42.6703 32.8969 40.575 31.3922 38.6343 31.9125Z" fill="black"/>
<path fill-rule="evenodd" clip-rule="evenodd" d="M57.3374 31.9125C59.2781 32.4328 60.3609 34.6828 60.1077 35.625C59.8546 36.5672 57.9984 37.2 56.0577 36.6797C54.1171 36.1594 52.8515 34.5703 53.0765 33.7406C53.3015 32.9109 55.3827 31.3922 57.3374 31.9125Z" fill="black"/>
<path d="M52.486 19.0172C52.7531 18.6656 53.0203 18.3281 53.2875 18.0469C53.9766 17.3016 54.6516 16.8375 55.1719 16.8797C55.7485 16.9219 56.4657 17.6953 57.1688 18.8906C57.4219 19.3125 57.661 19.7906 57.9 20.3109" stroke="#CABCB4" stroke-width="2.53125" stroke-linecap="round"/>
<path d="M39.0335 34.3932C39.5827 33.844 39.7608 33.1317 39.4313 32.8022C39.1018 32.4727 38.3895 32.6508 37.8403 33.1999C37.2911 33.7491 37.1131 34.4614 37.4426 34.7909C37.7721 35.1204 38.4844 34.9423 39.0335 34.3932Z" fill="white"/>
<path d="M55.9114 34.505C56.5628 34.082 56.8851 33.4223 56.6313 33.0315C56.3776 32.6407 55.6438 32.6667 54.9924 33.0897C54.341 33.5126 54.0187 34.1724 54.2725 34.5632C54.5263 34.954 55.26 34.928 55.9114 34.505Z" fill="white"/>
</g>
<g clip-path="url(#clip1_1_712)">
<path d="M90 7H104C107.314 7 110 9.68629 110 13V27H90V7Z" fill="#D23939"/>
<path d="M90 7H104C107.314 7 110 9.68629 110 13V27H90V7Z" fill="#D23939"/>
<path d="M90 7H104C107.314 7 110 9.68629 110 13V27H90V7Z" fill="#D23939"/>
<g clip-path="url(#clip2_1_712)">
<path d="M110 7H90V27H110V7Z" fill="#FBC93C"/>
<path d="M110 7H90V27H110V7Z" fill="#FBC93C"/>
<path fill-rule="evenodd" clip-rule="evenodd" d="M100.398 10.5156C104.469 10.5156 106.623 13.2722 106.815 16.324C107.001 19.2888 106.836 23.5614 105.774 27.0001H94.9494C94.1904 24.2779 93.9071 21.0187 93.9172 18.3121L93.8483 18.2721L93.7792 18.2322L93.7098 18.1926L93.5709 18.1137L93.363 17.9959L93.2599 17.9371L93.1916 17.8978L93.0901 17.8388L93.0232 17.7994L92.9741 17.7701L92.9254 17.7407L92.8771 17.7113C92.8691 17.7064 92.8611 17.7015 92.8531 17.6965L92.8056 17.6669L92.7585 17.6372C92.7507 17.6323 92.743 17.6273 92.7352 17.6223L92.689 17.5924C92.6813 17.5874 92.6737 17.5824 92.6661 17.5774L92.6208 17.5473C92.6133 17.5422 92.6058 17.5372 92.5984 17.5321L92.554 17.5017C91.9673 17.0954 91.5639 16.6416 91.6841 16.0238C91.9189 14.8159 92.8838 14.6195 94.2588 14.7739C94.9788 12.3988 97.0343 10.5156 100.398 10.5156Z" fill="#4CBFEA"/>
<path fill-rule="evenodd" clip-rule="evenodd" d="M91.6732 16.3837C92.5773 16.3897 93.4892 16.5653 94.3446 16.8L94.4411 16.8268C94.5214 16.8493 94.6012 16.8723 94.6804 16.8958L94.7751 16.9241L94.8693 16.9527L94.9628 16.9817C94.9939 16.9913 95.0249 17.0011 95.0558 17.0109L95.1481 17.0403C95.1634 17.0453 95.1787 17.0502 95.194 17.0551L95.2853 17.0849L95.3759 17.1148L95.4658 17.1448L95.6001 17.1902C95.6668 17.213 95.7329 17.2357 95.7983 17.2584L95.9282 17.3038L96.0561 17.3488L96.2442 17.4157L96.7221 17.5868L96.8918 17.647L97.0351 17.6972L97.1659 17.7423L97.2614 17.7746L97.3545 17.8055L97.4153 17.8253L97.475 17.8444C97.4849 17.8475 97.4947 17.8506 97.5044 17.8536L97.5625 17.8716C97.5721 17.8745 97.5816 17.8774 97.5911 17.8803L97.6474 17.8971C97.666 17.9025 97.6844 17.9078 97.7027 17.913L97.7567 17.9282C97.8814 17.9625 97.9965 17.9896 98.1011 18.0081C98.9522 18.1581 99.5444 17.9883 99.8776 17.4987L99.8822 17.8052L99.8865 18.1083L99.8904 18.408L99.8954 18.8513L99.8983 19.1425L99.9007 19.4304L99.9027 19.7149L99.9036 19.8559L99.905 20.1353L99.9056 20.2738L99.9064 20.5481L99.9068 20.8191V20.9533L99.9065 21.2192L99.9059 21.4817L99.9048 21.7409L99.9034 21.9966L99.9015 22.249L99.8992 22.498L99.8965 22.7436L99.8934 22.9858L99.889 23.2838L99.8839 23.5765L99.8793 23.8069L99.8769 23.9208L99.8717 24.1462L99.869 24.2575L99.8632 24.4778L99.857 24.6946L99.8538 24.8018L99.847 25.0136L99.8434 25.1182L99.836 25.3249L99.8303 25.4745L99.8244 25.6223L99.8151 25.8406L99.8086 25.9838L99.8019 26.1253L99.795 26.2648L99.7878 26.4026L99.7805 26.5386L99.7729 26.6727L99.7651 26.805L99.757 26.9355C99.7557 26.9571 99.7543 26.9786 99.7529 27H94.9494C94.1904 24.2779 93.9071 21.0187 93.9172 18.3121L93.8483 18.2721L93.7792 18.2322L93.7099 18.1926L93.5709 18.1136L93.363 17.9959L93.2599 17.937L93.1916 17.8978L93.0901 17.8388L93.0022 17.7869L92.9604 17.7619L92.8983 17.7243L92.8573 17.6991L92.8167 17.6739L92.7764 17.6485L92.7365 17.6231L92.697 17.5976L92.658 17.572L92.6002 17.5333L92.5436 17.4944L92.4972 17.4618L92.4517 17.4289L92.4337 17.4157L92.3982 17.3892L92.3633 17.3625C92.3459 17.3491 92.3289 17.3356 92.312 17.3221L92.2786 17.295L92.2622 17.2813L92.2298 17.2539C92.2191 17.2448 92.2085 17.2356 92.1981 17.2263L92.1671 17.1986C91.9016 16.9568 91.7176 16.6918 91.6732 16.3837Z" fill="white"/>
<path d="M102.844 16.7095C103.066 15.8197 102.524 14.9186 101.634 14.6967C100.744 14.4749 99.8425 15.0163 99.6206 15.9061" stroke="black" stroke-width="0.703125" stroke-linecap="round"/>
<path d="M91.971 16.2754C95.0314 16.6503 96.9992 17.7373 98.2786 17.9629C99.1315 18.1132 99.5703 17.9164 99.595 17.3724" stroke="#1683AC" stroke-width="0.703125" stroke-linecap="round"/>
<path d="M102.539 19.6562L104.219 20.75V25.1641C102.109 24.7214 101.055 22.8854 101.055 19.6562" stroke="#1683AC" stroke-width="0.703125" stroke-linecap="round" stroke-linejoin="round"/>
<path d="M105.666 15.5522C105.606 15.311 105.523 15.0659 105.416 14.8213C105.19 14.3 104.859 13.7803 104.428 13.3023C103.998 12.8242 103.515 12.4404 103.021 12.1606C102.789 12.0293 102.554 11.9209 102.32 11.8365" stroke="white" stroke-width="0.703125" stroke-linecap="round"/>
</g>
</g>
<g clip-path="url(#clip3_1_712)">
<rect width="20" height="20" transform="translate(90 29)" fill="#D23939"/>
<rect width="20" height="20" transform="translate(90 29)" fill="#D23939"/>
<rect width="20" height="20" transform="translate(90 29)" fill="#D23939"/>
<g clip-path="url(#clip4_1_712)">
<path d="M110 29H90V49H110V29Z" fill="#FD57A4"/>
<path fill-rule="evenodd" clip-rule="evenodd" d="M99.9805 32.3594C103.723 32.3594 106.758 35.375 106.758 39.0977C106.758 40.6953 106.199 42.1641 105.266 43.3164C106.352 44.5469 106.836 46.2344 106.836 48.1016C106.836 48.4062 106.816 48.707 106.777 49H93.1836C93.1445 48.707 93.125 48.4062 93.125 48.1016C93.125 46.2344 93.6094 44.5469 94.6953 43.3164C93.7617 42.1641 93.2031 40.6953 93.2031 39.0977C93.2031 35.375 96.2383 32.3594 99.9805 32.3594Z" fill="#FFE934"/>
<path d="M95.7578 43.9023C96.1289 44.1445 96.5273 44.3555 96.957 44.5313C97.8672 44.9023 98.8945 45.1133 99.9805 45.1133C101.066 45.1133 102.094 44.9023 103.004 44.5313C103.43 44.3555 103.832 44.1445 104.203 43.9023" stroke="#FF9000" stroke-width="0.703125" stroke-linecap="round"/>
<path d="M97.2852 39.8594C97.8569 39.8594 98.3203 39.3172 98.3203 38.6484C98.3203 37.9797 97.8569 37.4375 97.2852 37.4375C96.7135 37.4375 96.25 37.9797 96.25 38.6484C96.25 39.3172 96.7135 39.8594 97.2852 39.8594Z" fill="black"/>
<path d="M97.0508 38.8438C97.2773 38.8438 97.4609 38.6251 97.4609 38.3555C97.4609 38.0858 97.2773 37.8672 97.0508 37.8672C96.8243 37.8672 96.6406 38.0858 96.6406 38.3555C96.6406 38.6251 96.8243 38.8438 97.0508 38.8438Z" fill="white"/>
<path d="M102.676 39.8594C103.247 39.8594 103.711 39.3172 103.711 38.6484C103.711 37.9797 103.247 37.4375 102.676 37.4375C102.104 37.4375 101.641 37.9797 101.641 38.6484C101.641 39.3172 102.104 39.8594 102.676 39.8594Z" fill="black"/>
<path fill-rule="evenodd" clip-rule="evenodd" d="M100.02 39.1953C100.602 39.1953 100.871 39.4375 101.094 39.6875L101.121 39.7187L101.211 39.8242L101.238 39.8555L101.266 39.8828C101.43 40.0664 101.605 40.2109 101.918 40.2109C102.945 40.2109 103.43 40.5273 103.441 41.168V41.1875V41.2187C103.402 42.2773 101.551 42.8906 100.051 42.9062H100.004H99.9844H99.9648C98.457 42.9062 96.5664 42.2891 96.5273 41.2187V41.1875C96.5273 40.5312 97.0156 40.2109 98.0508 40.2109C98.3477 40.2109 98.5195 40.0781 98.6758 39.9102L98.7031 39.8828L98.7305 39.8555L98.7578 39.8242L98.8477 39.7187C98.8516 39.7148 98.8555 39.707 98.8594 39.7031L98.8867 39.6719C99.1055 39.4297 99.375 39.1953 99.9453 39.1953C99.957 39.1953 99.9727 39.1953 99.9844 39.1953C99.9922 39.1953 100.008 39.1953 100.02 39.1953Z" fill="#FF4B00"/>
<path d="M97.6172 41.2266C98.2383 41.5117 99.0313 41.6562 100 41.6562C100.969 41.6562 101.762 41.5117 102.383 41.2266" stroke="#921000" stroke-width="0.703125" stroke-linecap="round"/>
<path d="M102.402 38.8438C102.629 38.8438 102.812 38.6251 102.812 38.3555C102.812 38.0858 102.629 37.8672 102.402 37.8672C102.176 37.8672 101.992 38.0858 101.992 38.3555C101.992 38.6251 102.176 38.8438 102.402 38.8438Z" fill="white"/>
</g>
</g>
<g clip-path="url(#clip5_1_712)">
<path d="M90 51H110V65C110 68.3137 107.314 71 104 71H90V51Z" fill="#D23939"/>
<path d="M90 51H110V65C110 68.3137 107.314 71 104 71H90V51Z" fill="#D23939"/>
<path d="M90 51H110V65C110 68.3137 107.314 71 104 71H90V51Z" fill="#D23939"/>
<g clip-path="url(#clip6_1_712)">
<path d="M110 51H90V71H110V51Z" fill="#42CD7C"/>
<path d="M110 51H90V71H110V51Z" fill="#42CD7C"/>
<path fill-rule="evenodd" clip-rule="evenodd" d="M100 51.6641C101.853 51.6641 104.333 53.8429 105.451 56.395C106.816 59.5096 107.656 63.9616 107.656 64.9062C107.656 65.3058 107.366 65.7264 106.892 66.1368L106.85 66.1724C106.843 66.1784 106.836 66.1843 106.829 66.1902L106.786 66.2258C106.677 66.3146 106.56 66.4029 106.436 66.4902L106.386 66.5251L106.335 66.5599L106.283 66.5946L106.231 66.6291C106.222 66.6349 106.214 66.6406 106.205 66.6464L106.151 66.6808C106.62 67.6855 106.836 68.8543 106.836 70.1016C106.836 70.4062 106.816 70.7061 106.777 71H93.1844C93.1452 70.7061 93.125 70.4062 93.125 70.1016C93.125 68.8849 93.3308 67.7429 93.7756 66.7549L93.7501 66.7381L93.6994 66.7043C93.6826 66.6931 93.666 66.6817 93.6494 66.6704L93.6002 66.6363C92.8423 66.1058 92.3438 65.5133 92.3438 64.9062C92.3438 63.8196 93.1775 59.4295 94.5179 56.3734C95.6347 53.8269 98.1473 51.6641 100 51.6641Z" fill="#112F40"/>
<path fill-rule="evenodd" clip-rule="evenodd" d="M100.012 60.739C100.652 60.739 101.08 60.6516 101.435 60.5495L101.487 60.5345L101.537 60.5193L101.587 60.504L101.636 60.4887L101.708 60.4657L101.85 60.4203L101.919 60.3983L101.966 60.384C101.973 60.3816 101.981 60.3793 101.989 60.3769L102.035 60.3632L102.082 60.3498C102.331 60.2799 102.591 60.2303 102.928 60.2358C104.568 60.2623 104.748 63.9297 104.736 65.6268C104.727 66.9375 101.25 68.1094 100 68.1094C98.75 68.1094 95.0781 66.9375 95.0781 65.5703L95.0783 65.4503L95.0788 65.3623L95.0797 65.2683L95.081 65.1686C95.1049 63.6153 95.3183 60.2188 97.1092 60.2188C97.3345 60.2188 97.5335 60.2539 97.7319 60.306L97.7777 60.3183L97.8236 60.3311L97.8696 60.3445L97.9158 60.3583L97.9856 60.3797L98.1039 60.417L98.2504 60.4633L98.3262 60.4867L98.3777 60.5023L98.4302 60.5178C98.4391 60.5203 98.448 60.5229 98.4569 60.5255L98.5109 60.5408C98.52 60.5433 98.5292 60.5458 98.5384 60.5484L98.5941 60.5633C98.9603 60.6599 99.4039 60.739 100.012 60.739Z" fill="black"/>
<path fill-rule="evenodd" clip-rule="evenodd" d="M97.1092 60.2188C97.3345 60.2188 97.5335 60.2539 97.7319 60.306L97.7777 60.3183L97.8236 60.3311L97.8696 60.3445L97.9158 60.3583L97.9856 60.3797L98.1039 60.417L98.2504 60.4633L98.3262 60.4867L98.3777 60.5023L98.4302 60.5178C98.4391 60.5203 98.448 60.5229 98.4569 60.5255L98.5109 60.5408C98.52 60.5433 98.5292 60.5458 98.5384 60.5484L98.5941 60.5633C98.9603 60.6599 99.4039 60.739 100.012 60.739C100.652 60.739 101.08 60.6516 101.435 60.5495L101.487 60.5345L101.537 60.5193L101.587 60.504L101.636 60.4887L101.708 60.4657L101.85 60.4203L101.919 60.3983L101.966 60.384C101.973 60.3816 101.981 60.3793 101.989 60.3769L102.035 60.3632L102.082 60.3498C102.331 60.2799 102.591 60.2303 102.928 60.2358C103.295 60.2417 103.59 60.4304 103.825 60.7386L103.823 60.8377L103.819 60.984L103.817 61.0799L103.814 61.1746L103.81 61.3144L103.805 61.4513L103.799 61.5854L103.793 61.7167L103.789 61.8026L103.785 61.8874L103.78 61.9708L103.776 62.0531L103.771 62.1341L103.765 62.2138L103.76 62.2923L103.755 62.3695L103.749 62.4455L103.743 62.5203L103.737 62.5938L103.73 62.666L103.724 62.737L103.717 62.8068L103.71 62.8753L103.703 62.9425L103.696 63.0085L103.688 63.0733L103.68 63.1368C103.679 63.1473 103.678 63.1577 103.676 63.1681L103.668 63.2298C103.667 63.2399 103.665 63.2501 103.664 63.2601L103.656 63.3199L103.647 63.3784L103.638 63.4357L103.629 63.4917L103.62 63.5465L103.611 63.6001C103.609 63.6089 103.608 63.6177 103.606 63.6264L103.596 63.678L103.586 63.7285L103.576 63.7776C103.575 63.7857 103.573 63.7938 103.571 63.8017L103.561 63.849C103.557 63.8646 103.554 63.88 103.55 63.8951L103.539 63.9399C103.538 63.9473 103.536 63.9546 103.534 63.9618L103.523 64.0048C103.512 64.0471 103.5 64.0875 103.488 64.1261L103.477 64.1641C102.782 66.324 101.627 66.9375 100.02 66.9375C98.4123 66.9375 97.2665 66.324 96.5723 64.1641L96.5601 64.1249C96.558 64.1183 96.556 64.1116 96.554 64.1048L96.5421 64.0637C96.5401 64.0567 96.5381 64.0497 96.5362 64.0426L96.5245 63.9995C96.5226 63.9922 96.5207 63.9848 96.5188 63.9774L96.5075 63.9323L96.4964 63.8859L96.4854 63.8381C96.48 63.8139 96.4747 63.7892 96.4695 63.7639L96.4591 63.7129L96.4489 63.6604L96.439 63.6067L96.4292 63.5516L96.4197 63.4952L96.4103 63.4375L96.4012 63.3785C96.3997 63.3685 96.3982 63.3585 96.3967 63.3485L96.3879 63.2874L96.3793 63.2251C96.3779 63.2146 96.3765 63.204 96.3751 63.1934L96.3668 63.129L96.3587 63.0634L96.3509 62.9964C96.3496 62.9851 96.3483 62.9737 96.347 62.9624L96.3395 62.8934C96.3382 62.8818 96.337 62.8701 96.3358 62.8584L96.3285 62.7874L96.3215 62.7151L96.3147 62.6414C96.3136 62.6291 96.3125 62.6166 96.3114 62.6041L96.3049 62.5285L96.2986 62.4516L96.2925 62.3733L96.2837 62.2534L96.2782 62.1718L96.2728 62.0889L96.2677 62.0046L96.2628 61.9191L96.258 61.8322L96.2535 61.7439L96.2492 61.6544L96.2432 61.5176L96.2394 61.4247L96.2341 61.2829L96.2293 61.1382L96.225 60.9904L96.2211 60.8397L96.2188 60.7376L96.2167 60.6341C96.2163 60.6167 96.216 60.5993 96.2157 60.5818C96.4582 60.3536 96.7524 60.2188 97.1092 60.2188Z" fill="white"/>
<path fill-rule="evenodd" clip-rule="evenodd" d="M100 66C101.122 66 102.031 64.8672 102.031 64.2031C102.031 63.0813 101.122 62.875 100 62.875C98.8782 62.875 97.9688 63.0813 97.9688 64.2031C97.9688 64.8672 98.8782 66 100 66Z" fill="#0D222E"/>
<path d="M99.5654 65.065C99.1943 64.8615 98.9308 64.5034 98.8496 64.243" stroke="#405B7D" stroke-width="0.703125" stroke-linecap="round"/>
<path d="M100.642 63.6261C100.849 63.688 101.019 63.7818 101.121 63.878" stroke="#405B7D" stroke-width="0.703125" stroke-linecap="round"/>
<path d="M94.991 67.5915C96.862 68.6109 99.1012 69.1906 100.001 69.1906C100.902 69.1906 103.131 68.61 104.991 67.5891" stroke="black" stroke-width="0.703125" stroke-linecap="round"/>
<path fill-rule="evenodd" clip-rule="evenodd" d="M97.1092 60.2188C97.3345 60.2188 97.5335 60.2539 97.732 60.306L97.7778 60.3183L97.8236 60.3311L97.8696 60.3445L97.9158 60.3583L97.9856 60.3797L98.1039 60.417L98.2505 60.4633L98.3262 60.4867L98.3778 60.5023L98.4303 60.5178C98.4391 60.5203 98.448 60.5229 98.4569 60.5255L98.5109 60.5408C98.52 60.5433 98.5292 60.5458 98.5384 60.5484L98.5941 60.5633C98.9603 60.6599 99.4039 60.739 100.012 60.739C100.652 60.739 101.08 60.6516 101.435 60.5495L101.487 60.5345L101.537 60.5193L101.587 60.504L101.636 60.4887L101.708 60.4657L101.85 60.4203L101.919 60.3983L101.966 60.384C101.973 60.3816 101.981 60.3793 101.989 60.3769L102.035 60.3632L102.082 60.3498C102.331 60.2799 102.591 60.2303 102.928 60.2358C103.295 60.2417 103.59 60.4304 103.825 60.7386L103.822 60.8655L103.819 60.9904L103.816 61.1132L103.812 61.2339C103.811 61.2539 103.811 61.2737 103.81 61.2935L103.806 61.4112L103.802 61.5268L103.797 61.6403L103.792 61.7518C103.791 61.7702 103.79 61.7885 103.789 61.8067C103.655 61.7633 103.51 61.7393 103.353 61.7373C102.965 61.7326 102.632 61.7763 102.311 61.8377L102.251 61.8493C102.241 61.8513 102.231 61.8533 102.221 61.8553L102.161 61.8676L102.101 61.8801L102.041 61.8929L101.922 61.919L101.71 61.9657L101.618 61.9857L101.556 61.9989L101.494 62.012L101.431 62.0248C101.42 62.0269 101.41 62.029 101.399 62.0311L101.335 62.0436C100.959 62.1155 100.542 62.1715 100.027 62.1712C99.5706 62.171 99.1723 62.127 98.8101 62.0666L98.7405 62.0547C98.6943 62.0466 98.6487 62.0383 98.6037 62.0298L98.5365 62.017L98.4701 62.0039L98.4045 61.9906L98.3395 61.9772L98.2751 61.9637L98.1483 61.9365L97.8704 61.8765L97.8099 61.8636L97.7197 61.8449L97.6599 61.8328L97.6005 61.8211C97.5906 61.8192 97.5807 61.8173 97.5708 61.8155L97.5117 61.8045L97.4527 61.7939L97.3939 61.784C97.1686 61.7468 96.9456 61.7227 96.716 61.7227C96.5509 61.7227 96.3975 61.7418 96.2551 61.7777L96.25 61.6726L96.2451 61.5656L96.2406 61.4568C96.2398 61.4385 96.2391 61.4201 96.2384 61.4017L96.2343 61.2901L96.2305 61.1767L96.2269 61.0614L96.2237 60.9443L96.2207 60.8253L96.2181 60.7045C96.2172 60.664 96.2164 60.6231 96.2157 60.5819C96.4582 60.3536 96.7524 60.2188 97.1092 60.2188Z" fill="#B4C0C9"/>
</g>
</g>
</g>
<defs>
<filter id="filter0_d_1_712" x="0" y="0" width="118" height="80" filterUnits="userSpaceOnUse" color-interpolation-filters="sRGB">
<feFlood flood-opacity="0" result="BackgroundImageFix"/>
<feColorMatrix in="SourceAlpha" type="matrix" values="0 0 0 0 0 0 0 0 0 0 0 0 0 0 0 0 0 0 127 0" result="hardAlpha"/>
<feOffset dy="1"/>
<feGaussianBlur stdDeviation="2"/>
<feComposite in2="hardAlpha" operator="out"/>
<feColorMatrix type="matrix" values="0 0 0 0 0 0 0 0 0 0 0 0 0 0 0 0 0 0 0.05 0"/>
<feBlend mode="normal" in2="BackgroundImageFix" result="effect1_dropShadow_1_712"/>
<feBlend mode="normal" in="SourceGraphic" in2="effect1_dropShadow_1_712" result="shape"/>
</filter>
<clipPath id="clip0_1_712">
<path d="M8 13C8 9.68629 10.6863 7 14 7H88V71H14C10.6863 71 8 68.3137 8 65V13Z" fill="white"/>
</clipPath>
<clipPath id="clip1_1_712">
<path d="M90 7H104C107.314 7 110 9.68629 110 13V27H90V7Z" fill="white"/>
</clipPath>
<clipPath id="clip2_1_712">
<rect width="20" height="20" fill="white" transform="translate(90 7)"/>
</clipPath>
<clipPath id="clip3_1_712">
<rect width="20" height="20" fill="white" transform="translate(90 29)"/>
</clipPath>
<clipPath id="clip4_1_712">
<rect width="20" height="20" fill="white" transform="translate(90 29)"/>
</clipPath>
<clipPath id="clip5_1_712">
<path d="M90 51H110V65C110 68.3137 107.314 71 104 71H90V51Z" fill="white"/>
</clipPath>
<clipPath id="clip6_1_712">
<rect width="20" height="20" fill="white" transform="translate(90 51)"/>
</clipPath>
</defs>
</svg>
