<svg width="80" height="118" viewBox="0 0 80 118" fill="none" xmlns="http://www.w3.org/2000/svg">
<g filter="url(#filter0_d_1_764)">
<g clip-path="url(#clip0_1_764)">
<rect x="76" y="3" width="110" height="72" rx="10" transform="rotate(90 76 3)" fill="white"/>
<g clip-path="url(#clip1_1_764)">
<path d="M66 7C69.3137 7 72 9.68629 72 13V87H8L8 13C8 9.68629 10.6863 7 14 7L66 7Z" fill="#0999D6"/>
<path fill-rule="evenodd" clip-rule="evenodd" d="M67.45 49.2922C67.45 49.3062 67.6047 49.8828 67.5906 49.8547C67.8859 51.0359 68.0688 52.0344 68.0688 52.0203C68.2094 52.7094 68.3078 53.3281 68.3078 53.314C68.3078 53.3281 68.3922 53.8484 68.3922 53.8203C68.4625 54.3406 68.5187 54.6922 68.5187 54.6781C68.6453 55.6484 68.6734 56.0844 68.6734 56.0703C68.7297 56.6609 68.7578 57.1672 68.7578 57.1531C68.7578 57.1672 68.7859 57.5891 68.7859 57.5609C68.7859 57.575 68.8141 57.9828 68.8 57.9547C68.8 57.9687 68.8141 58.4609 68.8141 58.4328C68.8562 59.839 68.9125 61.7515 65.9453 64.7609C65.9734 64.7469 65.7625 64.9719 64.1734 66.35C66.5781 71.5109 67.2531 83.1203 66.6625 88H13.1969C12.5922 82.9937 13.3234 71.4125 15.6859 66.3359C15.6719 66.3219 14.8563 65.6469 14.8703 65.6469C14.5047 65.3234 14.1813 65.0141 14.1953 65.0281C12.6062 63.4812 11.0312 61.4422 11.0312 59.2344C11.0312 59.2203 11.0312 58.8687 11.0312 58.8969C11.0312 58.8828 11.0453 58.5172 11.0453 58.5453C11.0453 58.5312 11.0594 58.1515 11.0594 58.1797C11.0594 58.1656 11.0875 57.6734 11.0875 57.7015C11.0875 57.6875 11.1156 57.2797 11.1156 57.3078C11.1156 57.2937 11.1578 56.675 11.1578 56.689C11.1578 56.675 11.2 56.225 11.2 56.2531C11.2 56.239 11.2422 55.7891 11.2422 55.8172C11.2844 55.4516 11.3406 55.0015 11.3406 55.0156C11.3406 55.0015 11.4109 54.5094 11.3969 54.5375C11.4953 53.8062 11.6078 53.1734 11.6078 53.1875C11.6078 53.1734 11.7484 52.4141 11.7484 52.4281C12.1984 50.0094 12.8312 47.9703 12.8312 47.9844C12.9016 47.7312 12.9156 47.689 13.0141 47.2953C16.7969 33.9219 29.7344 18.1719 34.0938 19.1562C35.2188 19.4094 36.3297 20.7594 37.3422 22.7562C37.9609 24.0219 38.3266 25.0062 38.3125 24.9922C38.3125 25.0062 38.4953 25.4703 38.4812 25.4422C38.6219 25.8078 38.7063 26.075 38.8469 26.4828C41.3219 26.4547 40.8859 26.4828 41.1109 26.4828C41.6031 25.0344 41.9406 24.2469 41.9266 24.2609C42.6156 22.5875 44.0781 19.564 45.85 19.1562C50.35 18.1437 64.2016 35.0047 67.45 49.2922Z" fill="white"/>
<path d="M35.3031 27.0172C35.0359 26.6656 34.7687 26.3281 34.5015 26.0469C33.8125 25.3016 33.1375 24.8375 32.6172 24.8797C32.0406 24.9219 31.3234 25.6953 30.6203 26.8906C30.3672 27.3125 30.1281 27.7906 29.889 28.3109" stroke="#CABCB4" stroke-width="2.53125" stroke-linecap="round"/>
<path d="M21.9718 69.1766C28.7077 72.8469 36.7656 74.9281 40.014 74.9281C43.2624 74.9281 51.278 72.8328 57.9718 69.1625" stroke="#CABCB4" stroke-width="2.53125" stroke-linecap="round"/>
<path fill-rule="evenodd" clip-rule="evenodd" d="M39.1281 53.6656C40.1687 55.1281 42.0812 56.1547 44.3312 56.2812V56.5625V56.9141C44.3312 60.9078 43.15 64.1422 39.9578 64.1422C36.8078 64.1422 35.6125 60.9641 35.5844 57.0266V56.9V56.5484C35.5844 56.3656 35.5844 56.1828 35.5844 56C37.1031 55.5922 38.3547 54.7625 39.1281 53.6656Z" fill="#F23C57"/>
<path d="M27.0343 50.9094C27.4843 52.8781 28.6093 54.65 30.2687 55.7469C33.5874 57.9406 37.8484 56.6187 39.7749 52.8078" stroke="black" stroke-width="2.53125" stroke-linecap="round"/>
<path d="M52.2202 50.9094C51.7702 52.8781 50.6452 54.65 48.9859 55.7469C45.6671 57.9406 41.4062 56.6187 39.4796 52.8078" stroke="black" stroke-width="2.53125" stroke-linecap="round"/>
<path fill-rule="evenodd" clip-rule="evenodd" d="M39.7328 53.7078C41.6734 53.7078 44.3875 50.8672 44.3875 48.4625C44.3875 46.0578 42.7 45.8047 39.6625 45.8047C36.625 45.8047 34.9375 46.0578 34.9375 48.4625C34.9375 50.8672 37.7922 53.7078 39.7328 53.7078Z" fill="black"/>
<path fill-rule="evenodd" clip-rule="evenodd" d="M30.6343 39.9125C28.6937 40.4328 27.6109 42.6828 27.864 43.625C28.1171 44.5672 29.9734 45.2 31.914 44.6797C33.8547 44.1594 35.1203 42.5703 34.8953 41.7406C34.6703 40.8969 32.575 39.3922 30.6343 39.9125Z" fill="black"/>
<path fill-rule="evenodd" clip-rule="evenodd" d="M49.3374 39.9125C51.2781 40.4328 52.3609 42.6828 52.1077 43.625C51.8546 44.5672 49.9984 45.2 48.0577 44.6797C46.1171 44.1594 44.8515 42.5703 45.0765 41.7406C45.3015 40.9109 47.3827 39.3922 49.3374 39.9125Z" fill="black"/>
<path d="M44.486 27.0172C44.7531 26.6656 45.0203 26.3281 45.2875 26.0469C45.9766 25.3016 46.6516 24.8375 47.1719 24.8797C47.7485 24.9219 48.4657 25.6953 49.1688 26.8906C49.4219 27.3125 49.661 27.7906 49.9 28.3109" stroke="#CABCB4" stroke-width="2.53125" stroke-linecap="round"/>
<path d="M31.0335 42.3932C31.5827 41.844 31.7608 41.1317 31.4313 40.8022C31.1018 40.4727 30.3895 40.6508 29.8403 41.1999C29.2911 41.7491 29.1131 42.4614 29.4426 42.7909C29.7721 43.1204 30.4844 42.9423 31.0335 42.3932Z" fill="white"/>
<path d="M47.9114 42.505C48.5628 42.082 48.8851 41.4223 48.6313 41.0315C48.3776 40.6407 47.6438 40.6667 46.9924 41.0897C46.341 41.5126 46.0187 42.1724 46.2725 42.5632C46.5263 42.954 47.26 42.928 47.9114 42.505Z" fill="white"/>
</g>
<g clip-path="url(#clip2_1_764)">
<path d="M72 89V103C72 106.314 69.3137 109 66 109H52V89H72Z" fill="#D23939"/>
<path d="M72 89V103C72 106.314 69.3137 109 66 109H52V89H72Z" fill="#D23939"/>
<path d="M72 89V103C72 106.314 69.3137 109 66 109H52V89H72Z" fill="#D23939"/>
<g clip-path="url(#clip3_1_764)">
<path d="M72 89H52V109H72V89Z" fill="#FBC93C"/>
<path d="M72 89H52V109H72V89Z" fill="#FBC93C"/>
<path fill-rule="evenodd" clip-rule="evenodd" d="M62.3984 92.5156C66.4695 92.5156 68.6227 95.2722 68.8148 98.324C69.0014 101.289 68.8364 105.561 67.7739 109H56.9494C56.1904 106.278 55.9071 103.019 55.9172 100.312L55.8483 100.272L55.7792 100.232L55.7098 100.193L55.5709 100.114L55.363 99.9959L55.2599 99.9371L55.1916 99.8978L55.0901 99.8388L55.0232 99.7994L54.9741 99.7701L54.9254 99.7407L54.8771 99.7113C54.8691 99.7064 54.8611 99.7015 54.8531 99.6965L54.8056 99.6669L54.7585 99.6372C54.7507 99.6323 54.743 99.6273 54.7352 99.6223L54.689 99.5924C54.6813 99.5874 54.6737 99.5824 54.6661 99.5774L54.6208 99.5473C54.6133 99.5422 54.6058 99.5372 54.5984 99.5321L54.554 99.5017C53.9673 99.0954 53.5639 98.6416 53.6841 98.0238C53.9189 96.8159 54.8838 96.6195 56.2588 96.7739C56.9788 94.3988 59.0343 92.5156 62.3984 92.5156Z" fill="#4CBFEA"/>
<path fill-rule="evenodd" clip-rule="evenodd" d="M53.6732 98.3837C54.5773 98.3897 55.4892 98.5653 56.3446 98.8L56.4411 98.8268C56.5214 98.8493 56.6012 98.8723 56.6804 98.8958L56.7751 98.9241L56.8693 98.9527L56.9628 98.9817C56.9939 98.9913 57.0249 99.0011 57.0558 99.0109L57.1481 99.0403C57.1634 99.0453 57.1787 99.0502 57.194 99.0551L57.2853 99.0849L57.3759 99.1148L57.4658 99.1448L57.6001 99.1902C57.6668 99.213 57.7329 99.2357 57.7983 99.2584L57.9282 99.3038L58.0561 99.3488L58.2442 99.4157L58.7221 99.5868L58.8918 99.647L59.0351 99.6972L59.1659 99.7423L59.2614 99.7746L59.3545 99.8055L59.4153 99.8253L59.475 99.8444C59.4849 99.8475 59.4947 99.8506 59.5044 99.8536L59.5625 99.8716C59.5721 99.8745 59.5816 99.8774 59.5911 99.8803L59.6474 99.8971C59.666 99.9025 59.6844 99.9078 59.7027 99.913L59.7567 99.9282C59.8814 99.9625 59.9965 99.9896 60.1011 100.008C60.9522 100.158 61.5444 99.9883 61.8776 99.4987L61.8822 99.8052L61.8865 100.108L61.8904 100.408L61.8954 100.851L61.8983 101.143L61.9007 101.43L61.9027 101.715L61.9036 101.856L61.905 102.135L61.9056 102.274L61.9064 102.548L61.9068 102.819V102.953L61.9065 103.219L61.9059 103.482L61.9048 103.741L61.9034 103.997L61.9015 104.249L61.8992 104.498L61.8965 104.744L61.8934 104.986L61.889 105.284L61.8839 105.577L61.8793 105.807L61.8769 105.921L61.8717 106.146L61.869 106.258L61.8632 106.478L61.857 106.695L61.8538 106.802L61.847 107.014L61.8434 107.118L61.836 107.325L61.8303 107.475L61.8244 107.622L61.8151 107.841L61.8086 107.984L61.8019 108.125L61.795 108.265L61.7878 108.403L61.7805 108.539L61.7729 108.673L61.7651 108.805L61.757 108.935C61.7557 108.957 61.7543 108.979 61.7529 109H56.9494C56.1904 106.278 55.9071 103.019 55.9172 100.312L55.8483 100.272L55.7792 100.232L55.7099 100.193L55.5709 100.114L55.363 99.9959L55.2599 99.937L55.1916 99.8978L55.0901 99.8388L55.0022 99.7869L54.9604 99.7619L54.8983 99.7243L54.8573 99.6991L54.8167 99.6739L54.7764 99.6485L54.7365 99.6231L54.697 99.5976L54.658 99.572L54.6002 99.5333L54.5436 99.4944L54.4972 99.4618L54.4517 99.4289L54.4337 99.4157L54.3982 99.3892L54.3633 99.3625C54.3459 99.3491 54.3289 99.3356 54.312 99.3221L54.2786 99.295L54.2622 99.2813L54.2298 99.2539C54.2191 99.2448 54.2085 99.2356 54.1981 99.2263L54.1671 99.1986C53.9016 98.9568 53.7176 98.6918 53.6732 98.3837Z" fill="white"/>
<path d="M64.844 98.7095C65.0659 97.8197 64.5243 96.9186 63.6341 96.6967C62.744 96.4749 61.8425 97.0163 61.6206 97.9061" stroke="black" stroke-width="0.703125" stroke-linecap="round"/>
<path d="M53.971 98.2754C57.0314 98.6503 58.9992 99.7373 60.2786 99.9629C61.1315 100.113 61.5703 99.9164 61.595 99.3724" stroke="#1683AC" stroke-width="0.703125" stroke-linecap="round"/>
<path d="M64.5391 101.656L66.2188 102.75V107.164C64.1094 106.721 63.0547 104.885 63.0547 101.656" stroke="#1683AC" stroke-width="0.703125" stroke-linecap="round" stroke-linejoin="round"/>
<path d="M67.6655 97.5522C67.606 97.311 67.5228 97.0659 67.4164 96.8213C67.1899 96.3 66.8586 95.7803 66.4281 95.3023C65.9977 94.8242 65.5155 94.4404 65.0208 94.1606C64.7885 94.0293 64.5535 93.9209 64.3199 93.8365" stroke="white" stroke-width="0.703125" stroke-linecap="round"/>
</g>
</g>
<g clip-path="url(#clip4_1_764)">
<rect width="20" height="20" transform="matrix(0 1 -1 0 50 89)" fill="#D23939"/>
<rect width="20" height="20" transform="matrix(0 1 -1 0 50 89)" fill="#D23939"/>
<rect width="20" height="20" transform="matrix(0 1 -1 0 50 89)" fill="#D23939"/>
<g clip-path="url(#clip5_1_764)">
<path d="M50 89H30V109H50V89Z" fill="#FD57A4"/>
<path fill-rule="evenodd" clip-rule="evenodd" d="M39.9805 92.3594C43.7227 92.3594 46.7578 95.375 46.7578 99.0977C46.7578 100.695 46.1992 102.164 45.2656 103.316C46.3516 104.547 46.8359 106.234 46.8359 108.102C46.8359 108.406 46.8164 108.707 46.7773 109H33.1836C33.1445 108.707 33.125 108.406 33.125 108.102C33.125 106.234 33.6094 104.547 34.6953 103.316C33.7617 102.164 33.2031 100.695 33.2031 99.0977C33.2031 95.375 36.2383 92.3594 39.9805 92.3594Z" fill="#FFE934"/>
<path d="M35.7578 103.902C36.1289 104.145 36.5273 104.355 36.957 104.531C37.8672 104.902 38.8945 105.113 39.9805 105.113C41.0664 105.113 42.0937 104.902 43.0039 104.531C43.4297 104.355 43.832 104.145 44.2031 103.902" stroke="#FF9000" stroke-width="0.703125" stroke-linecap="round"/>
<path d="M37.2852 99.8594C37.8569 99.8594 38.3203 99.3172 38.3203 98.6484C38.3203 97.9797 37.8569 97.4375 37.2852 97.4375C36.7135 97.4375 36.25 97.9797 36.25 98.6484C36.25 99.3172 36.7135 99.8594 37.2852 99.8594Z" fill="black"/>
<path d="M37.0508 98.8438C37.2773 98.8438 37.4609 98.6251 37.4609 98.3555C37.4609 98.0858 37.2773 97.8672 37.0508 97.8672C36.8243 97.8672 36.6406 98.0858 36.6406 98.3555C36.6406 98.6251 36.8243 98.8438 37.0508 98.8438Z" fill="white"/>
<path d="M42.6758 99.8594C43.2475 99.8594 43.7109 99.3172 43.7109 98.6484C43.7109 97.9797 43.2475 97.4375 42.6758 97.4375C42.1041 97.4375 41.6406 97.9797 41.6406 98.6484C41.6406 99.3172 42.1041 99.8594 42.6758 99.8594Z" fill="black"/>
<path fill-rule="evenodd" clip-rule="evenodd" d="M40.0195 99.1953C40.6016 99.1953 40.8711 99.4375 41.0938 99.6875L41.1211 99.7187L41.2109 99.8242L41.2383 99.8555L41.2656 99.8828C41.4297 100.066 41.6055 100.211 41.918 100.211C42.9453 100.211 43.4297 100.527 43.4414 101.168V101.188V101.219C43.4023 102.277 41.5508 102.891 40.0508 102.906H40.0039H39.9844H39.9648C38.457 102.906 36.5664 102.289 36.5273 101.219V101.188C36.5273 100.531 37.0156 100.211 38.0508 100.211C38.3477 100.211 38.5195 100.078 38.6758 99.9102L38.7031 99.8828L38.7305 99.8555L38.7578 99.8242L38.8477 99.7187C38.8516 99.7148 38.8555 99.707 38.8594 99.7031L38.8867 99.6719C39.1055 99.4297 39.375 99.1953 39.9453 99.1953C39.957 99.1953 39.9727 99.1953 39.9844 99.1953C39.9922 99.1953 40.0078 99.1953 40.0195 99.1953Z" fill="#FF4B00"/>
<path d="M37.6172 101.227C38.2383 101.512 39.0313 101.656 40 101.656C40.9687 101.656 41.7617 101.512 42.3828 101.227" stroke="#921000" stroke-width="0.703125" stroke-linecap="round"/>
<path d="M42.4023 98.8438C42.6289 98.8438 42.8125 98.6251 42.8125 98.3555C42.8125 98.0858 42.6289 97.8672 42.4023 97.8672C42.1758 97.8672 41.9922 98.0858 41.9922 98.3555C41.9922 98.6251 42.1758 98.8438 42.4023 98.8438Z" fill="white"/>
</g>
</g>
<g clip-path="url(#clip6_1_764)">
<path d="M28 89V109H14C10.6863 109 8 106.314 8 103V89H28Z" fill="#D23939"/>
<path d="M28 89V109H14C10.6863 109 8 106.314 8 103V89H28Z" fill="#D23939"/>
<path d="M28 89V109H14C10.6863 109 8 106.314 8 103V89H28Z" fill="#D23939"/>
<g clip-path="url(#clip7_1_764)">
<path d="M28 89H8V109H28V89Z" fill="#42CD7C"/>
<path d="M28 89H8V109H28V89Z" fill="#42CD7C"/>
<path fill-rule="evenodd" clip-rule="evenodd" d="M18 89.6641C19.8527 89.6641 22.3333 91.8429 23.4513 94.395C24.8157 97.5096 25.6562 101.962 25.6562 102.906C25.6562 103.306 25.3661 103.726 24.8921 104.137L24.8504 104.172C24.8433 104.178 24.8363 104.184 24.8292 104.19L24.7861 104.226C24.6774 104.315 24.5603 104.403 24.436 104.49L24.3859 104.525L24.3351 104.56L24.2835 104.595L24.2311 104.629C24.2223 104.635 24.2135 104.641 24.2047 104.646L24.1513 104.681C24.6197 105.685 24.8359 106.854 24.8359 108.102C24.8359 108.406 24.8157 108.706 24.7766 109H11.1844C11.1452 108.706 11.125 108.406 11.125 108.102C11.125 106.885 11.3308 105.743 11.7756 104.755L11.7501 104.738L11.6994 104.704C11.6826 104.693 11.666 104.682 11.6494 104.67L11.6002 104.636C10.8423 104.106 10.3438 103.513 10.3438 102.906C10.3438 101.82 11.1775 97.4295 12.5179 94.3734C13.6347 91.8269 16.1473 89.6641 18 89.6641Z" fill="#112F40"/>
<path fill-rule="evenodd" clip-rule="evenodd" d="M18.0122 98.739C18.6517 98.739 19.08 98.6516 19.4354 98.5495L19.4869 98.5345L19.5374 98.5193L19.5871 98.504L19.6361 98.4887L19.7083 98.4657L19.8496 98.4203L19.9193 98.3983L19.9657 98.384C19.9734 98.3816 19.9812 98.3793 19.9889 98.3769L20.0353 98.3632L20.0819 98.3498C20.331 98.2799 20.5912 98.2303 20.928 98.2358C22.5684 98.2623 22.7478 101.93 22.7358 103.627C22.7266 104.938 19.25 106.109 18 106.109C16.75 106.109 13.0781 104.938 13.0781 103.57L13.0783 103.45L13.0788 103.362L13.0797 103.268L13.081 103.169C13.1049 101.615 13.3183 98.2188 15.1092 98.2188C15.3345 98.2188 15.5335 98.2539 15.7319 98.306L15.7777 98.3183L15.8236 98.3311L15.8696 98.3445L15.9158 98.3583L15.9856 98.3797L16.1039 98.417L16.2504 98.4633L16.3262 98.4867L16.3777 98.5023L16.4302 98.5178C16.4391 98.5203 16.448 98.5229 16.4569 98.5255L16.5109 98.5408C16.52 98.5433 16.5292 98.5458 16.5384 98.5484L16.5941 98.5633C16.9603 98.6599 17.4039 98.739 18.0122 98.739Z" fill="black"/>
<path fill-rule="evenodd" clip-rule="evenodd" d="M15.1092 98.2188C15.3345 98.2188 15.5335 98.2539 15.7319 98.306L15.7777 98.3183L15.8236 98.3311L15.8696 98.3445L15.9158 98.3583L15.9856 98.3797L16.1039 98.417L16.2504 98.4633L16.3262 98.4867L16.3777 98.5023L16.4302 98.5178C16.4391 98.5203 16.448 98.5229 16.4569 98.5255L16.5109 98.5408C16.52 98.5433 16.5292 98.5458 16.5384 98.5484L16.5941 98.5633C16.9603 98.6599 17.4039 98.739 18.0122 98.739C18.6517 98.739 19.08 98.6516 19.4354 98.5495L19.4869 98.5345L19.5374 98.5193L19.5871 98.504L19.6361 98.4887L19.7083 98.4657L19.8496 98.4203L19.9193 98.3983L19.9657 98.384C19.9734 98.3816 19.9812 98.3793 19.9889 98.3769L20.0353 98.3632L20.0819 98.3498C20.331 98.2799 20.5912 98.2303 20.928 98.2358C21.2955 98.2417 21.5896 98.4304 21.8247 98.7386L21.8227 98.8377L21.8193 98.984L21.8167 99.0799L21.814 99.1746L21.8095 99.3144L21.8046 99.4513L21.7992 99.5854L21.7933 99.7167L21.7892 99.8026L21.7849 99.8874L21.7803 99.9708L21.7756 100.053L21.7706 100.134L21.7655 100.214L21.7601 100.292L21.7545 100.37L21.7488 100.446L21.7428 100.52L21.7367 100.594L21.7303 100.666L21.7238 100.737L21.717 100.807L21.71 100.875L21.7029 100.943L21.6955 101.009L21.6879 101.073L21.6802 101.137C21.6789 101.147 21.6775 101.158 21.6762 101.168L21.6681 101.23C21.6668 101.24 21.6654 101.25 21.664 101.26L21.6557 101.32L21.6471 101.378L21.6383 101.436L21.6293 101.492L21.6202 101.547L21.6108 101.6C21.6092 101.609 21.6076 101.618 21.606 101.626L21.5963 101.678L21.5865 101.728L21.5764 101.778C21.5747 101.786 21.573 101.794 21.5713 101.802L21.5609 101.849C21.5574 101.865 21.5538 101.88 21.5503 101.895L21.5395 101.94C21.5377 101.947 21.5359 101.955 21.534 101.962L21.5229 102.005C21.5117 102.047 21.5003 102.088 21.4885 102.126L21.4766 102.164C20.7824 104.324 19.6267 104.938 18.0195 104.938C16.4123 104.938 15.2665 104.324 14.5723 102.164L14.5601 102.125C14.558 102.118 14.556 102.112 14.554 102.105L14.5421 102.064C14.5401 102.057 14.5381 102.05 14.5362 102.043L14.5245 101.999C14.5226 101.992 14.5207 101.985 14.5188 101.977L14.5075 101.932L14.4964 101.886L14.4854 101.838C14.48 101.814 14.4747 101.789 14.4695 101.764L14.4591 101.713L14.4489 101.66L14.439 101.607L14.4292 101.552L14.4197 101.495L14.4103 101.438L14.4012 101.378C14.3997 101.369 14.3982 101.359 14.3967 101.348L14.3879 101.287L14.3793 101.225C14.3779 101.215 14.3765 101.204 14.3751 101.193L14.3668 101.129L14.3587 101.063L14.3509 100.996C14.3496 100.985 14.3483 100.974 14.347 100.962L14.3395 100.893C14.3382 100.882 14.337 100.87 14.3358 100.858L14.3285 100.787L14.3215 100.715L14.3147 100.641C14.3136 100.629 14.3125 100.617 14.3114 100.604L14.3049 100.529L14.2986 100.452L14.2925 100.373L14.2837 100.253L14.2782 100.172L14.2728 100.089L14.2677 100.005L14.2628 99.9191L14.258 99.8322L14.2535 99.7439L14.2492 99.6544L14.2432 99.5176L14.2394 99.4247L14.2341 99.2829L14.2293 99.1382L14.225 98.9904L14.2211 98.8397L14.2188 98.7376L14.2167 98.6341C14.2163 98.6167 14.216 98.5993 14.2157 98.5818C14.4582 98.3536 14.7524 98.2188 15.1092 98.2188Z" fill="white"/>
<path fill-rule="evenodd" clip-rule="evenodd" d="M18 104C19.1218 104 20.0312 102.867 20.0312 102.203C20.0312 101.081 19.1218 100.875 18 100.875C16.8782 100.875 15.9688 101.081 15.9688 102.203C15.9688 102.867 16.8782 104 18 104Z" fill="#0D222E"/>
<path d="M17.5654 103.065C17.1943 102.861 16.9308 102.503 16.8496 102.243" stroke="#405B7D" stroke-width="0.703125" stroke-linecap="round"/>
<path d="M18.6419 101.626C18.8493 101.688 19.0191 101.782 19.1211 101.878" stroke="#405B7D" stroke-width="0.703125" stroke-linecap="round"/>
<path d="M12.991 105.591C14.862 106.611 17.1012 107.191 18.0014 107.191C18.9022 107.191 21.1311 106.61 22.991 105.589" stroke="black" stroke-width="0.703125" stroke-linecap="round"/>
<path fill-rule="evenodd" clip-rule="evenodd" d="M15.1092 98.2188C15.3345 98.2188 15.5335 98.2539 15.732 98.306L15.7778 98.3183L15.8236 98.3311L15.8696 98.3445L15.9158 98.3583L15.9856 98.3797L16.1039 98.417L16.2505 98.4633L16.3262 98.4867L16.3778 98.5023L16.4303 98.5178C16.4391 98.5203 16.448 98.5229 16.4569 98.5255L16.5109 98.5408C16.52 98.5433 16.5292 98.5458 16.5384 98.5484L16.5941 98.5633C16.9603 98.6599 17.4039 98.739 18.0122 98.739C18.6518 98.739 19.0801 98.6516 19.4354 98.5495L19.4869 98.5345L19.5374 98.5193L19.5871 98.504L19.6361 98.4887L19.7083 98.4657L19.8496 98.4203L19.9194 98.3983L19.9657 98.384C19.9735 98.3816 19.9812 98.3793 19.9889 98.3769L20.0353 98.3632L20.0819 98.3498C20.3311 98.2799 20.5912 98.2303 20.9281 98.2358C21.2955 98.2417 21.5896 98.4304 21.8247 98.7386L21.8221 98.8655L21.8191 98.9904L21.8158 99.1132L21.8121 99.2339C21.8115 99.2539 21.8108 99.2737 21.8102 99.2935L21.8061 99.4112L21.8016 99.5268L21.7968 99.6403L21.7917 99.7518C21.7908 99.7702 21.7899 99.7885 21.789 99.8067C21.6547 99.7633 21.5095 99.7393 21.3526 99.7373C20.9645 99.7326 20.6321 99.7763 20.3107 99.8377L20.2506 99.8493C20.2406 99.8513 20.2306 99.8533 20.2206 99.8553L20.1607 99.8676L20.101 99.8801L20.0412 99.8929L19.9215 99.919L19.7102 99.9657L19.6183 99.9857L19.5564 99.9989L19.494 100.012L19.4309 100.025C19.4203 100.027 19.4098 100.029 19.3991 100.031L19.335 100.044C18.9588 100.115 18.5422 100.171 18.027 100.171C17.5706 100.171 17.1723 100.127 16.8101 100.067L16.7405 100.055C16.6943 100.047 16.6487 100.038 16.6037 100.03L16.5365 100.017L16.4701 100.004L16.4045 99.9906L16.3395 99.9772L16.2751 99.9637L16.1483 99.9365L15.8704 99.8765L15.8099 99.8636L15.7197 99.8449L15.6599 99.8328L15.6005 99.8211C15.5906 99.8192 15.5807 99.8173 15.5708 99.8155L15.5117 99.8045L15.4527 99.7939L15.3939 99.784C15.1686 99.7468 14.9456 99.7227 14.716 99.7227C14.5509 99.7227 14.3975 99.7418 14.2551 99.7777L14.25 99.6726L14.2451 99.5656L14.2406 99.4568C14.2398 99.4385 14.2391 99.4201 14.2384 99.4017L14.2343 99.2901L14.2305 99.1767L14.2269 99.0614L14.2237 98.9443L14.2207 98.8253L14.2181 98.7045C14.2172 98.664 14.2164 98.6231 14.2157 98.5819C14.4582 98.3536 14.7524 98.2188 15.1092 98.2188Z" fill="#B4C0C9"/>
</g>
</g>
</g>
</g>
<defs>
<filter id="filter0_d_1_764" x="0" y="0" width="80" height="118" filterUnits="userSpaceOnUse" color-interpolation-filters="sRGB">
<feFlood flood-opacity="0" result="BackgroundImageFix"/>
<feColorMatrix in="SourceAlpha" type="matrix" values="0 0 0 0 0 0 0 0 0 0 0 0 0 0 0 0 0 0 127 0" result="hardAlpha"/>
<feOffset dy="1"/>
<feGaussianBlur stdDeviation="2"/>
<feComposite in2="hardAlpha" operator="out"/>
<feColorMatrix type="matrix" values="0 0 0 0 0 0 0 0 0 0 0 0 0 0 0 0 0 0 0.05 0"/>
<feBlend mode="normal" in2="BackgroundImageFix" result="effect1_dropShadow_1_764"/>
<feBlend mode="normal" in="SourceGraphic" in2="effect1_dropShadow_1_764" result="shape"/>
</filter>
<clipPath id="clip0_1_764">
<rect x="76" y="3" width="110" height="72" rx="10" transform="rotate(90 76 3)" fill="white"/>
</clipPath>
<clipPath id="clip1_1_764">
<path d="M66 7C69.3137 7 72 9.68629 72 13V87H8L8 13C8 9.68629 10.6863 7 14 7L66 7Z" fill="white"/>
</clipPath>
<clipPath id="clip2_1_764">
<path d="M72 89V103C72 106.314 69.3137 109 66 109H52V89H72Z" fill="white"/>
</clipPath>
<clipPath id="clip3_1_764">
<rect width="20" height="20" fill="white" transform="translate(52 89)"/>
</clipPath>
<clipPath id="clip4_1_764">
<rect width="20" height="20" fill="white" transform="matrix(0 1 -1 0 50 89)"/>
</clipPath>
<clipPath id="clip5_1_764">
<rect width="20" height="20" fill="white" transform="translate(30 89)"/>
</clipPath>
<clipPath id="clip6_1_764">
<path d="M28 89V109H14C10.6863 109 8 106.314 8 103V89H28Z" fill="white"/>
</clipPath>
<clipPath id="clip7_1_764">
<rect width="20" height="20" fill="white" transform="translate(8 89)"/>
</clipPath>
</defs>
</svg>
